<svg xmlns="http://www.w3.org/2000/svg" viewBox="0 0 200 60" width="200" height="60">
  <!-- Background gradient -->
  <defs>
    <linearGradient id="logoGradient" x1="0%" y1="0%" x2="100%" y2="0%">
      <stop offset="0%" style="stop-color:#22c55e;stop-opacity:1" />
      <stop offset="50%" style="stop-color:#16a34a;stop-opacity:1" />
      <stop offset="100%" style="stop-color:#15803d;stop-opacity:1" />
    </linearGradient>
    
    <linearGradient id="numberGradient" x1="0%" y1="0%" x2="100%" y2="100%">
      <stop offset="0%" style="stop-color:#fbbf24;stop-opacity:1" />
      <stop offset="100%" style="stop-color:#f59e0b;stop-opacity:1" />
    </linearGradient>
    
    <filter id="glow">
      <feGaussianBlur stdDeviation="2" result="coloredBlur"/>
      <feMerge> 
        <feMergeNode in="coloredBlur"/>
        <feMergeNode in="SourceGraphic"/>
      </feMerge>
    </filter>
  </defs>
  
  <!-- Background rounded rectangle -->
  <rect width="200" height="60" rx="8" fill="url(#logoGradient)" />
  
  <!-- Number "1" with red and yellow outline -->
  <text x="70" y="42" fill="none" stroke="#dc2626" stroke-width="3" font-family="Arial, sans-serif" font-size="36" font-weight="bold">1</text>
  <text x="70" y="42" fill="none" stroke="#fbbf24" stroke-width="1.5" font-family="Arial, sans-serif" font-size="36" font-weight="bold">1</text>
  <text x="70" y="42" fill="url(#numberGradient)" font-family="Arial, sans-serif" font-size="36" font-weight="bold" filter="url(#glow)">1</text>
  
  <!-- "st" superscript with red and yellow outline -->
  <text x="95" y="28" fill="none" stroke="#dc2626" stroke-width="2" font-family="Arial, sans-serif" font-size="16" font-weight="bold">st</text>
  <text x="95" y="28" fill="none" stroke="#fbbf24" stroke-width="1" font-family="Arial, sans-serif" font-size="16" font-weight="bold">st</text>
  <text x="95" y="28" fill="url(#numberGradient)" font-family="Arial, sans-serif" font-size="16" font-weight="bold">st</text>
  
  <!-- "Health" text with red and yellow outline -->
  <text x="115" y="42" fill="none" stroke="#dc2626" stroke-width="3" font-family="Arial, sans-serif" font-size="28" font-weight="bold">Health</text>
  <text x="115" y="42" fill="none" stroke="#fbbf24" stroke-width="1.5" font-family="Arial, sans-serif" font-size="28" font-weight="bold">Health</text>
  <text x="115" y="42" fill="white" font-family="Arial, sans-serif" font-size="28" font-weight="bold" filter="url(#glow)">Health</text>
  
  <!-- Decorative sparkle effects -->
  <path d="M40 15 L42 20 L47 18 L42 20 L40 25 L38 20 L33 18 L38 20 Z" fill="white" opacity="0.7" />
  <path d="M170 45 L171 48 L174 47 L171 48 L170 51 L169 48 L166 47 L169 48 Z" fill="white" opacity="0.5" />
  <path d="M20 35 L21 37 L23 36 L21 37 L20 39 L19 37 L17 36 L19 37 Z" fill="white" opacity="0.6" />
</svg>