<svg width="200" height="200" viewBox="0 0 200 200" xmlns="http://www.w3.org/2000/svg">
  <!-- Hexagonal background with golden outline -->
  <defs>
    <clipPath id="hexClip">
      <polygon points="100,15 170,55 170,135 100,175 30,135 30,55"/>
    </clipPath>
  </defs>
  
  <!-- Golden yellow outline -->
  <polygon points="100,15 170,55 170,135 100,175 30,135 30,55" 
           fill="none" 
           stroke="#FFD700" 
           stroke-width="8"/>
  
  <!-- Background (changed to forest green) -->
  <polygon points="100,15 170,55 170,135 100,175 30,135 30,55" 
           fill="#2D5016" 
           clip-path="url(#hexClip)"/>
  
  <!-- Human figure silhouette -->
  <g transform="translate(100, 100)">
    <!-- Body -->
    <ellipse cx="0" cy="10" rx="8" ry="25" fill="#87CEEB" opacity="0.8"/>
    
    <!-- Head -->
    <circle cx="0" cy="-25" r="8" fill="#87CEEB" opacity="0.8"/>
    
    <!-- Arms spread out -->
    <ellipse cx="-20" cy="0" rx="15" ry="4" fill="#87CEEB" opacity="0.8"/>
    <ellipse cx="20" cy="0" rx="15" ry="4" fill="#87CEEB" opacity="0.8"/>
    
    <!-- Legs -->
    <ellipse cx="-6" cy="35" rx="4" ry="15" fill="#87CEEB" opacity="0.8"/>
    <ellipse cx="6" cy="35" rx="4" ry="15" fill="#87CEEB" opacity="0.8"/>
  </g>
  
  <!-- Organ icons with timing (simplified) -->
  <!-- Brain -->
  <circle cx="100" cy="40" r="8" fill="#FFB6C1" stroke="#FFF" stroke-width="2"/>
  <text x="100" y="30" text-anchor="middle" fill="#FFD700" font-family="Arial" font-size="8" font-weight="bold">BRAIN</text>
  <text x="100" y="58" text-anchor="middle" fill="#FF6B6B" font-family="Arial" font-size="7" font-weight="bold">1 Year</text>
  
  <!-- Lungs -->
  <circle cx="135" cy="70" r="8" fill="#87CEEB" stroke="#FFF" stroke-width="2"/>
  <text x="135" y="60" text-anchor="middle" fill="#FFD700" font-family="Arial" font-size="8" font-weight="bold">LUNGS</text>
  <text x="135" y="88" text-anchor="middle" fill="#FF6B6B" font-family="Arial" font-size="7" font-weight="bold">2-3 Weeks</text>
  
  <!-- Blood -->
  <circle cx="65" cy="70" r="8" fill="#DC143C" stroke="#FFF" stroke-width="2"/>
  <text x="65" y="60" text-anchor="middle" fill="#FFD700" font-family="Arial" font-size="8" font-weight="bold">BLOOD</text>
  <text x="65" y="88" text-anchor="middle" fill="#FF6B6B" font-family="Arial" font-size="7" font-weight="bold">4 Months</text>
  
  <!-- Stomach -->
  <circle cx="135" cy="110" r="8" fill="#DDA0DD" stroke="#FFF" stroke-width="2"/>
  <text x="135" y="100" text-anchor="middle" fill="#FFD700" font-family="Arial" font-size="8" font-weight="bold">STOMACH</text>
  <text x="135" y="128" text-anchor="middle" fill="#FF6B6B" font-family="Arial" font-size="7" font-weight="bold">5 Days</text>
  
  <!-- Liver -->
  <circle cx="65" cy="110" r="8" fill="#8B4513" stroke="#FFF" stroke-width="2"/>
  <text x="65" y="100" text-anchor="middle" fill="#FFD700" font-family="Arial" font-size="8" font-weight="bold">LIVER</text>
  <text x="65" y="128" text-anchor="middle" fill="#FF6B6B" font-family="Arial" font-size="7" font-weight="bold">6 Weeks</text>
  
  <!-- Skin -->
  <circle cx="135" cy="150" r="8" fill="#FDBCB4" stroke="#FFF" stroke-width="2"/>
  <text x="135" y="140" text-anchor="middle" fill="#FFD700" font-family="Arial" font-size="8" font-weight="bold">SKIN</text>
  <text x="135" y="168" text-anchor="middle" fill="#FF6B6B" font-family="Arial" font-size="7" font-weight="bold">1 Month</text>
  
  <!-- Bones -->
  <circle cx="65" cy="150" r="8" fill="#F5F5DC" stroke="#FFF" stroke-width="2"/>
  <text x="65" y="140" text-anchor="middle" fill="#FFD700" font-family="Arial" font-size="8" font-weight="bold">BONES</text>
  <text x="65" y="168" text-anchor="middle" fill="#FF6B6B" font-family="Arial" font-size="7" font-weight="bold">3 Months</text>
</svg>